<?xml version="1.0" standalone="no"?>
<!DOCTYPE svg PUBLIC "-//W3C//DTD SVG 20010904//EN"
 "http://www.w3.org/TR/2001/REC-SVG-20010904/DTD/svg10.dtd">
<svg version="1.0" xmlns="http://www.w3.org/2000/svg"
 width="640.000000pt" height="640.000000pt" viewBox="0 0 640.000000 640.000000"
 preserveAspectRatio="xMidYMid meet">
<metadata>
Created by potrace 1.16, written by Peter Selinger 2001-2019
</metadata>
<g transform="translate(0.000000,640.000000) scale(0.100000,-0.100000)"
fill="#000000" stroke="none">
<path d="M225 3995 c-27 -8 -53 -14 -57 -15 -25 -1 -108 -85 -136 -137 l-32
-61 0 -233 c0 -226 1 -236 24 -286 33 -70 92 -126 162 -154 102 -39 295 -30
427 20 l27 11 0 234 c0 204 -2 235 -16 240 -9 3 -81 6 -160 6 l-144 0 0 -85 0
-85 65 0 65 0 0 -96 0 -97 -79 5 c-103 6 -137 26 -174 100 -27 52 -28 64 -28
180 0 149 16 205 74 251 34 28 45 31 125 35 82 4 114 -1 230 -34 23 -7 23 -6
20 87 l-3 93 -50 14 c-76 20 -279 25 -340 7z"/>
<path d="M975 3997 c-164 -55 -235 -189 -235 -440 1 -196 34 -314 110 -388 63
-61 126 -83 245 -84 249 -1 355 140 355 468 0 191 -38 308 -124 384 -24 21
-62 45 -83 52 -57 19 -220 24 -268 8z m178 -166 c38 -15 74 -59 89 -110 20
-72 17 -293 -5 -358 -30 -87 -101 -126 -185 -104 -75 21 -110 89 -119 236 -6
104 9 220 37 274 30 60 114 88 183 62z"/>
<path d="M3131 3995 c-111 -31 -182 -103 -222 -226 -21 -64 -24 -93 -24 -214
0 -151 12 -218 52 -300 48 -97 119 -146 243 -166 128 -21 342 18 360 65 10 28
13 326 4 407 l-7 60 -151 -3 -151 -3 -3 -82 -3 -83 66 0 65 0 0 -95 0 -95 -57
0 c-170 0 -227 71 -227 285 0 60 6 129 13 152 15 53 53 100 98 118 52 22 187
19 265 -5 34 -11 67 -20 71 -20 4 0 6 41 5 92 l-3 92 -50 13 c-79 22 -279 26
-344 8z"/>
<path d="M4706 3782 c-32 -119 -87 -320 -122 -447 -35 -126 -64 -231 -64 -232
0 -2 45 -3 100 -3 l99 0 10 38 c6 20 15 61 22 90 l11 53 116 -3 116 -3 13 -65
c24 -123 10 -110 124 -110 100 0 101 0 95 23 -41 155 -87 323 -156 575 l-84
302 -110 0 -111 0 -59 -218z m209 -179 c19 -81 35 -154 35 -160 0 -9 -22 -13
-75 -13 -41 0 -75 2 -75 4 0 2 16 74 35 160 19 86 35 159 35 163 0 28 17 -28
45 -154z"/>
<path d="M1800 3545 l0 -445 170 0 c239 0 325 23 402 108 67 74 105 230 94
387 -10 144 -41 235 -106 303 -71 74 -143 92 -377 92 l-183 0 0 -445z m370
257 c73 -36 106 -135 98 -294 -5 -110 -29 -173 -78 -208 -27 -19 -50 -25 -117
-28 l-83 -5 0 277 0 276 73 0 c49 0 83 -6 107 -18z"/>
<path d="M2570 3545 l0 -445 95 0 95 0 0 445 0 445 -95 0 -95 0 0 -445z"/>
<path d="M3670 3545 l0 -445 89 0 c73 0 90 3 95 16 4 9 6 210 6 445 l-1 429
-94 0 -95 0 0 -445z"/>
<path d="M3950 3905 l0 -85 110 0 110 0 0 -360 0 -360 95 0 95 0 0 360 0 360
105 0 105 0 0 85 0 85 -310 0 -310 0 0 -85z"/>
<path d="M5310 3545 l0 -445 275 0 275 0 0 85 0 85 -180 0 -180 0 0 360 0 360
-95 0 -95 0 0 -445z"/>
<path d="M799 2837 c-116 -61 -141 -209 -53 -307 43 -47 116 -75 173 -65 56 9
153 75 111 75 -6 0 -24 -10 -40 -22 -45 -33 -133 -36 -184 -6 -60 35 -79 68
-84 141 -3 55 0 67 24 104 32 48 94 83 147 83 19 0 55 -11 81 -25 55 -29 74
-32 55 -8 -44 53 -158 68 -230 30z"/>
<path d="M1195 2846 c-38 -17 -90 -72 -104 -109 -18 -46 -13 -124 9 -168 25
-48 88 -95 139 -104 81 -14 174 33 211 105 24 47 27 138 6 178 -19 37 -75 89
-109 101 -39 15 -116 13 -152 -3z m142 -21 c50 -21 72 -42 94 -90 72 -156 -97
-308 -247 -220 -76 44 -108 160 -65 231 49 80 138 112 218 79z"/>
<path d="M1550 2666 c0 -119 4 -197 10 -201 7 -4 10 53 10 164 0 131 3 171 13
170 6 0 66 -66 132 -145 142 -172 153 -184 165 -184 6 0 10 77 10 195 0 123
-4 195 -10 195 -6 0 -10 -64 -10 -171 0 -94 -4 -169 -8 -167 -5 2 -73 78 -152
171 -78 92 -146 167 -151 167 -5 0 -9 -87 -9 -194z"/>
<path d="M1960 2666 c0 -119 4 -197 10 -201 7 -4 10 53 10 163 0 93 3 171 6
175 3 3 45 -40 92 -96 134 -160 204 -237 213 -237 5 0 9 88 9 195 0 123 -4
195 -10 195 -6 0 -10 -63 -10 -170 0 -93 -3 -170 -7 -169 -5 0 -73 77 -152
170 -79 93 -148 169 -152 169 -5 0 -9 -87 -9 -194z"/>
<path d="M2380 2660 l0 -200 160 0 c136 0 160 2 160 15 0 13 -23 15 -150 15
l-150 0 0 80 0 79 113 3 c148 4 148 22 -1 26 l-113 3 3 77 3 77 148 3 c204 4
193 22 -13 22 l-160 0 0 -200z"/>
<path d="M2880 2838 c-26 -13 -57 -41 -73 -64 -115 -165 75 -381 253 -289 30
16 55 43 47 51 -3 3 -20 -5 -37 -18 -26 -19 -44 -23 -99 -23 -59 0 -72 4 -104
28 -49 37 -67 75 -67 137 0 67 24 115 72 147 57 38 121 41 182 8 48 -26 65
-27 51 -5 -13 22 -89 50 -135 50 -28 0 -63 -9 -90 -22z"/>
<path d="M3730 2666 c0 -119 4 -197 10 -201 7 -4 10 53 10 164 0 94 4 171 8
171 5 0 47 -49 93 -109 46 -61 89 -110 95 -110 6 -1 49 48 95 109 46 60 87
110 92 110 4 0 7 -76 7 -170 0 -104 4 -170 10 -170 18 0 21 43 18 220 -2 124
-6 175 -15 175 -6 0 -55 -55 -108 -122 -53 -68 -97 -123 -99 -123 -1 0 -47 56
-101 125 -54 69 -102 125 -107 125 -4 0 -8 -87 -8 -194z"/>
<path d="M4240 2660 l0 -200 160 0 c136 0 160 2 160 15 0 13 -23 15 -150 15
l-150 0 0 80 0 79 113 3 c68 2 111 7 109 13 -2 9 -41 12 -195 14 l-28 1 3 78
3 77 148 3 c204 4 193 22 -13 22 l-160 0 0 -200z"/>
<path d="M4632 2663 l3 -198 65 -3 c36 -2 83 2 105 8 151 44 199 228 87 336
-43 42 -84 54 -177 54 l-85 0 2 -197z m225 141 c73 -58 92 -139 52 -221 -32
-65 -85 -93 -181 -93 l-75 0 2 173 c1 94 3 174 4 176 0 2 37 2 80 0 71 -4 83
-7 118 -35z"/>
<path d="M5212 2673 c-46 -102 -81 -193 -79 -202 2 -10 14 5 30 37 l28 53 117
-3 117 -3 23 -48 c12 -26 27 -45 32 -42 6 4 9 9 7 13 -8 14 -74 160 -123 269
-27 62 -53 113 -59 113 -5 0 -47 -84 -93 -187z m152 19 c25 -57 46 -106 46
-108 0 -2 -47 -4 -105 -4 -58 0 -105 2 -105 4 0 2 14 35 31 73 17 37 40 88 50
112 11 25 23 40 28 35 5 -5 29 -55 55 -112z"/>
<path d="M2396 2413 c-13 -59 -71 -233 -78 -233 -4 0 -5 24 -2 53 l5 52 -23
-27 c-13 -16 -31 -28 -41 -28 -21 0 -51 -45 -43 -65 9 -25 33 -17 56 20 12 19
23 35 25 35 2 0 3 -16 3 -36 0 -44 16 -64 30 -38 5 11 20 49 32 87 13 37 25
67 27 67 3 0 4 -33 3 -72 -4 -110 -1 -148 11 -148 6 0 8 11 5 28 -3 15 -2 92
3 172 5 80 6 149 2 153 -5 5 -11 -4 -15 -20z"/>
<path d="M1914 2282 c-6 -4 -26 -34 -44 -67 -36 -67 -47 -81 -55 -73 -9 8 14
62 32 76 15 11 14 12 -6 12 -16 0 -26 -10 -37 -36 -19 -45 -15 -68 13 -72 18
-3 29 9 59 62 21 36 41 62 45 58 3 -4 9 -26 12 -49 5 -39 2 -44 -37 -80 -87
-79 -99 -141 -32 -167 15 -5 13 -1 -7 18 -24 22 -25 28 -16 55 12 34 76 101
96 101 22 0 17 -109 -7 -148 -20 -33 -20 -33 0 -22 31 17 40 44 40 127 1 77 1
78 34 103 41 30 39 37 -3 16 -16 -9 -32 -16 -34 -16 -3 0 -8 17 -11 38 -13 73
-18 80 -42 64z"/>
<path d="M3803 2278 c-6 -7 -12 -18 -14 -23 -13 -33 -64 -115 -72 -115 -13 0
1 51 20 73 15 15 15 17 0 17 -20 0 -47 -49 -47 -85 0 -18 5 -25 18 -25 23 0
40 19 77 84 24 42 30 46 36 30 20 -49 10 -78 -45 -136 -64 -68 -74 -101 -40
-135 13 -12 28 -23 34 -23 6 0 -1 10 -16 23 -36 32 -27 65 34 124 l46 45 8
-28 c11 -38 0 -120 -18 -135 -18 -14 -18 -30 -1 -23 30 11 47 61 47 136 0 71
1 75 30 96 36 27 50 28 43 2 -3 -11 0 -20 6 -20 6 0 11 6 11 14 0 8 9 24 20
37 15 19 19 21 20 7 0 -9 -6 -18 -12 -21 -7 -2 -10 -8 -6 -12 11 -12 38 15 38
37 0 28 -28 33 -54 9 -12 -11 -29 -21 -37 -21 -8 0 -25 -7 -37 -16 -28 -19
-42 -11 -42 27 0 33 -15 69 -29 69 -5 0 -13 -6 -18 -12z"/>
<path d="M4430 2233 c-1 -23 -35 -65 -80 -98 -19 -14 -27 -25 -19 -25 9 0 34
16 56 35 l41 35 16 -25 c23 -35 41 -31 77 18 34 47 52 53 57 19 2 -15 -12 -39
-46 -78 -32 -35 -55 -72 -63 -101 -12 -44 -11 -47 11 -65 42 -34 86 -3 115 81
8 25 15 66 15 92 0 43 4 51 35 75 20 15 33 29 30 32 -3 3 -19 -5 -37 -18 -30
-22 -32 -22 -45 -5 -7 11 -13 22 -13 27 0 4 -9 8 -20 8 -11 0 -31 -18 -50 -46
-18 -25 -37 -43 -43 -41 -7 2 -13 25 -15 50 -3 44 -22 68 -22 30z"/>
</g>
</svg>
