<?xml version="1.0" standalone="no"?>
<!DOCTYPE svg PUBLIC "-//W3C//DTD SVG 20010904//EN"
 "http://www.w3.org/TR/2001/REC-SVG-20010904/DTD/svg10.dtd">
<svg version="1.0" xmlns="http://www.w3.org/2000/svg"
 width="640.000000pt" height="640.000000pt" viewBox="0 0 640.000000 640.000000"
 preserveAspectRatio="xMidYMid meet">
<metadata>
Created by potrace 1.16, written by Peter Selinger 2001-2019
</metadata>
<g transform="translate(0.000000,640.000000) scale(0.100000,-0.100000)"
fill="#000000" stroke="none">
<path d="M4004 6048 c4 -194 9 -414 11 -488 2 -74 7 -337 10 -585 8 -639 14
-1046 20 -1305 3 -124 7 -367 10 -540 13 -845 16 -992 20 -1215 2 -132 7 -440
10 -685 3 -245 8 -514 11 -598 3 -83 2 -157 -1 -162 -4 -6 -17 -3 -35 10 -15
11 -33 20 -38 20 -6 0 -23 7 -39 15 -15 8 -77 33 -138 54 -101 37 -161 58
-490 179 -60 23 -200 75 -310 117 -110 42 -213 80 -229 85 -16 5 -81 29 -145
53 -264 101 -359 136 -423 157 -74 25 -69 19 -99 135 -19 77 -50 186 -112 400
-41 142 -47 176 -33 208 18 39 -40 3 -62 -40 -9 -17 -9 -22 4 -27 8 -3 12 -2
9 4 -3 5 0 7 8 4 8 -3 17 -13 20 -22 3 -9 32 -109 66 -222 76 -259 110 -390
101 -395 -3 -2 -35 5 -69 15 -73 23 -100 26 -53 5 33 -15 41 -29 20 -39 -7 -3
-3 -3 10 0 12 3 22 1 22 -5 0 -6 6 -11 13 -11 7 0 22 -6 32 -14 15 -11 17 -17
7 -28 -10 -12 -8 -14 11 -12 12 1 23 3 23 3 1 1 -2 17 -6 37 -11 49 4 30 24
-30 23 -71 22 -77 -16 -71 -22 4 -28 2 -19 -4 7 -5 10 -14 6 -20 -9 -16 13
-41 31 -34 7 3 12 9 9 13 -3 5 -1 11 4 14 8 5 38 -93 32 -103 -2 -2 3 -7 9
-11 8 -5 9 -13 4 -21 -5 -8 -7 -22 -6 -31 2 -10 -1 -18 -6 -18 -12 0 -24 29
-16 41 3 5 1 9 -5 9 -6 0 -7 7 -4 17 4 11 3 14 -5 9 -7 -4 -12 -1 -12 8 0 9 5
16 10 16 6 0 10 7 10 15 0 9 -6 12 -15 9 -9 -4 -15 0 -15 7 0 11 -3 11 -10 -1
-9 -13 -10 -13 -10 0 0 12 -2 13 -9 1 -5 -8 -14 -10 -21 -6 -9 5 -11 4 -6 -3
4 -7 2 -12 -5 -12 -8 0 -8 -4 -1 -12 6 -7 11 -16 11 -20 1 -5 1 -9 1 -10 1 -2
3 -35 6 -75 3 -42 17 -103 32 -147 25 -69 29 -74 42 -58 8 9 15 23 16 30 3 41
3 40 38 24 31 -14 33 -17 18 -28 -35 -26 -5 -256 33 -253 6 1 19 0 30 -1 15
-2 12 -4 -10 -10 -23 -6 -14 -8 40 -10 47 -1 63 -4 50 -9 -11 -5 -23 -7 -27
-5 -3 2 -35 -3 -70 -11 -35 -8 -115 -22 -178 -30 -321 -41 -452 -59 -525 -70
l-80 -13 100 5 c55 2 157 13 226 24 216 33 535 70 588 68 l26 -1 -25 -8 c-17
-5 -19 -8 -7 -9 10 -1 38 -21 62 -46 36 -36 45 -51 45 -80 0 -24 5 -35 15 -35
11 0 15 -11 15 -39 0 -22 6 -42 13 -45 9 -5 9 -7 0 -12 -7 -3 -13 -19 -13 -35
l0 -29 203 0 204 0 -5 30 c-2 17 -10 30 -18 30 -8 0 -14 5 -14 10 0 6 -11 10
-25 10 -22 0 -25 4 -25 40 0 25 -5 40 -12 40 -20 0 -40 51 -27 67 9 10 8 13
-5 13 -10 0 -25 17 -36 42 -10 23 -29 50 -42 60 -22 17 -22 18 -2 18 19 0 64
-41 64 -59 0 -4 9 -16 20 -26 11 -10 20 -23 20 -30 0 -7 9 -20 20 -30 11 -10
20 -27 20 -38 0 -12 5 -17 13 -14 9 3 18 -8 26 -29 7 -19 19 -34 27 -34 22 0
44 -25 44 -49 0 -12 6 -21 16 -21 8 0 12 -5 9 -11 -4 -6 -13 -8 -21 -5 -7 3
-16 1 -19 -4 -4 -6 42 -10 119 -10 71 0 126 4 126 9 0 6 12 6 32 0 19 -5 307
-9 670 -9 l638 0 0 60 c0 45 4 60 14 60 10 0 15 14 16 48 0 26 3 63 5 82 2 19
6 64 10 100 4 49 11 69 26 82 29 24 221 83 529 161 74 19 161 42 193 52 31 9
76 18 100 20 49 5 170 37 177 47 10 12 184 67 230 71 40 4 124 -5 172 -19 13
-4 18 4 24 33 4 21 12 41 18 45 7 5 5 8 -5 8 -19 0 -25 61 -35 395 -4 146 -3
228 5 267 9 42 9 63 1 77 -6 12 -13 53 -17 92 l-5 71 53 -7 c30 -3 62 -9 72
-11 20 -6 23 -44 3 -44 -30 0 -30 -73 0 -84 8 -3 14 -12 14 -21 0 -23 27 -18
34 7 9 36 7 86 -4 93 -5 3 -10 17 -10 30 0 31 -22 41 -89 44 -30 1 -58 4 -62
6 -3 3 -7 50 -8 106 -2 92 -1 101 14 89 13 -11 19 -10 35 7 19 21 19 21 -13
34 -55 22 -66 64 -19 75 45 10 110 44 116 60 13 35 -11 53 -77 56 l-62 3 -3
88 c-2 73 0 87 13 87 8 0 15 7 15 15 0 8 -7 15 -15 15 -20 0 -19 19 5 75 24
57 24 55 0 55 -12 0 -17 -5 -14 -14 3 -8 1 -17 -5 -21 -7 -4 -11 15 -12 57 -1
55 -2 59 -10 33 -6 -16 -8 -57 -6 -90 7 -89 1 -98 -74 -110 -56 -9 -64 -13
-67 -33 -3 -22 -1 -23 35 -16 21 3 42 10 47 15 31 28 33 -2 6 -66 -13 -31 -16
-45 -8 -43 7 3 22 28 34 56 11 29 24 55 27 59 4 3 7 -34 7 -84 l0 -90 -62 -2
c-41 -1 -64 2 -69 11 -6 9 -9 5 -10 -12 -1 -24 -1 -24 -13 5 -18 42 -29 135
-16 135 5 0 10 10 10 23 0 22 -4 23 -50 23 -47 -1 -50 -3 -45 -23 3 -12 1 -24
-4 -27 -4 -3 -13 16 -18 42 -9 45 -8 49 14 59 22 10 24 9 21 -10 -2 -18 3 -23
26 -25 17 -2 26 0 22 7 -4 5 -2 12 4 16 5 3 10 17 10 29 0 13 7 29 15 36 17
14 13 23 -10 26 -9 1 -15 -6 -15 -16 0 -10 -4 -22 -10 -25 -5 -3 -10 -15 -10
-26 0 -24 -12 -24 -27 0 -7 11 -25 21 -40 23 -23 3 -29 10 -41 53 -8 28 -14
58 -15 68 -1 9 -5 17 -9 17 -4 0 -8 8 -8 19 0 15 10 19 53 25 28 3 69 6 90 6
27 0 37 4 34 13 -2 6 -11 10 -18 8 -8 -2 -30 -5 -49 -6 -19 -2 -52 -6 -73 -10
-37 -7 -37 -7 -56 36 -10 24 -26 65 -35 90 -9 26 -25 54 -35 63 -20 18 -81 39
-81 28 0 -15 18 -34 27 -29 14 9 55 -22 47 -35 -4 -6 -2 -8 4 -4 13 8 45 -86
87 -256 18 -77 27 -128 21 -128 -8 0 -8 -3 -1 -8 6 -4 16 -27 22 -52 l11 -45
-82 -85 c-45 -47 -88 -100 -95 -118 -11 -27 -19 -33 -37 -29 -13 2 -21 0 -18
-4 3 -5 15 -9 27 -9 18 0 43 -12 75 -36 2 -1 -6 -12 -18 -24 -13 -13 -32 -20
-48 -19 -49 4 -62 0 -62 -21 0 -22 15 -27 23 -7 3 7 6 5 6 -5 1 -14 10 -18 37
-18 22 0 41 -6 48 -15 6 -9 23 -17 37 -19 13 -1 30 -5 36 -9 7 -4 16 1 22 10
10 17 10 17 11 1 0 -10 5 -18 11 -18 5 0 7 5 4 10 -8 13 36 51 49 43 5 -3 1
-10 -8 -15 -19 -10 -21 -39 -5 -55 19 -19 2 -41 -38 -52 -82 -21 -160 -39
-195 -46 -21 -3 -38 -10 -38 -15 0 -5 6 -7 13 -5 6 2 35 6 62 8 28 3 59 8 70
13 37 14 -1 -21 -71 -66 -44 -29 -64 -49 -65 -64 -2 -54 4 -102 14 -108 9 -6
9 -8 0 -8 -8 0 -13 -14 -12 -37 1 -37 2 -37 8 -8 5 22 9 26 15 16 7 -10 10
-10 16 -1 11 18 0 93 -16 106 -18 14 -18 38 0 53 22 19 227 101 237 95 5 -3 9
-32 9 -65 0 -60 0 -60 28 -57 16 2 27 9 27 18 0 8 13 18 30 21 17 4 22 7 13 8
-10 0 -18 6 -18 12 0 5 5 7 10 4 12 -8 50 3 50 15 0 4 -20 17 -45 29 -50 23
-63 47 -17 30 24 -8 23 -6 -13 26 l-40 36 53 -4 c28 -2 52 0 52 4 0 5 -4 9
-10 9 -5 0 -10 12 -10 26 0 14 4 23 9 19 5 -3 9 7 9 22 0 16 0 42 2 58 2 30 2
30 10 5 4 -14 8 -46 9 -72 1 -45 2 -47 24 -39 12 5 21 13 21 18 -1 4 -5 23 -9
40 -4 21 -3 33 4 33 6 0 10 -5 8 -11 -4 -22 44 -17 54 5 10 21 10 21 6 0 -3
-12 -1 -28 4 -35 6 -10 9 -4 9 19 0 17 5 32 10 32 6 0 10 -37 10 -91 l0 -90
-70 7 c-46 4 -70 3 -70 -4 0 -6 34 -13 75 -17 l75 -7 0 -50 0 -50 -42 33 c-24
18 -48 35 -53 38 -15 8 22 -25 53 -48 l26 -19 -18 -54 c-21 -61 -13 -115 17
-110 24 4 25 -14 30 -290 5 -284 9 -274 -84 -238 -30 11 -55 20 -56 20 -2 0
-3 -10 -4 -22 -1 -22 -1 -22 -8 2 -4 14 -15 26 -24 28 -14 3 -17 -4 -17 -38 0
-43 24 -66 41 -39 7 11 9 11 9 -3 0 -10 -8 -19 -17 -19 -24 -2 -35 -4 -53 -11
-8 -3 -125 -34 -260 -68 -135 -34 -270 -70 -300 -80 -168 -56 -754 -201 -734
-181 3 3 -30 12 -73 19 -43 7 -85 14 -93 16 -17 3 -32 144 -28 251 l3 60 75
17 c41 9 98 17 126 17 l51 1 6 -44 c7 -49 -1 -116 -14 -116 -5 0 -9 -7 -9 -15
0 -8 6 -15 14 -15 7 0 17 -15 21 -32 l7 -33 8 28 c5 16 17 35 27 42 17 13 17
14 -1 28 -14 10 -19 26 -19 63 0 27 -5 284 -10 572 -7 320 -7 526 -1 531 5 5
74 11 154 13 l145 3 5 -30 c6 -28 7 -26 14 17 9 58 -2 80 -40 84 -16 2 -34 10
-40 19 -14 19 -43 20 -50 1 -3 -8 -28 -16 -62 -20 -31 -4 -73 -9 -93 -12 l-36
-5 -8 180 c-6 155 -9 181 -23 184 -14 4 -14 5 2 6 17 1 18 9 12 129 -3 70 -11
129 -16 130 -14 5 -12 30 3 35 8 2 9 8 2 18 -5 8 -10 74 -10 146 0 73 -4 133
-9 133 -5 0 -7 40 -4 90 3 57 0 91 -6 95 -7 3 -7 7 2 11 6 3 12 10 12 15 0 6
-4 8 -9 4 -5 -3 -12 -1 -16 5 -3 5 1 10 9 10 9 0 16 5 16 10 0 13 -161 13
-196 0 -32 -12 -91 -3 -98 15 -2 7 -8 197 -11 422 -4 224 -9 411 -11 414 -2 4
-7 396 -10 871 l-7 865 30 6 c17 3 41 4 54 1 19 -5 21 -4 9 5 -8 6 -32 11 -52
11 -33 0 -38 3 -38 23 0 12 -2 110 -4 217 -2 107 -1 216 1 241 5 40 9 47 28
47 13 0 46 5 74 12 28 7 64 9 79 5 l27 -7 -24 -9 c-40 -16 -10 -27 52 -20 32
4 60 4 63 -1 6 -9 30 -10 148 -9 48 0 82 5 86 12 6 8 9 7 13 -2 3 -8 5 5 4 28
l-2 43 -414 0 -414 0 7 -352z m519 -2895 c-13 -2 -23 -9 -23 -14 0 -13 54 -11
68 3 6 6 14 10 16 7 2 -2 6 -130 8 -283 3 -206 7 -281 16 -284 7 -2 12 -10 12
-18 0 -9 -4 -12 -10 -9 -6 4 -10 -8 -10 -28 0 -41 -13 -52 -60 -56 -19 -1 -71
-6 -115 -10 -44 -5 -83 -6 -87 -2 -4 3 -10 158 -14 344 l-7 337 81 0 c48 0 82
4 82 10 0 6 15 9 33 9 23 -1 26 -3 10 -6z m68 -750 c1 -16 1 -34 0 -40 -1 -7
5 -13 14 -13 8 0 15 -5 15 -11 0 -5 -4 -7 -10 -4 -12 7 -11 19 -10 -176 l1
-157 -63 -4 c-35 -3 -68 -2 -74 3 -16 13 -55 -2 -52 -20 3 -13 23 -18 95 -25
l92 -8 6 -32 c3 -17 5 -67 3 -111 l-3 -79 -120 -18 c-65 -10 -122 -15 -126
-10 -6 5 -24 547 -24 697 0 18 9 21 75 26 41 3 99 6 128 7 50 2 52 1 53 -25z
m-2377 -1264 c-3 -5 -1 -8 4 -7 6 2 11 -1 12 -7 0 -5 11 -14 23 -19 19 -8 20
-10 4 -13 -23 -6 15 -26 137 -73 47 -19 86 -38 86 -42 0 -5 5 -6 10 -3 6 4 16
2 23 -3 7 -5 47 -24 91 -41 97 -39 124 -54 79 -46 -18 4 -83 29 -145 56 -62
27 -119 49 -127 49 -8 0 -30 5 -48 12 -27 10 -35 9 -45 -1 -8 -9 -9 -12 -1 -7
6 3 19 3 30 -1 16 -6 15 -8 -7 -14 -43 -12 -100 -10 -101 4 -1 6 -3 19 -4 27
0 8 -7 28 -13 43 -19 44 -27 112 -13 103 6 -4 9 -12 5 -17z"/>
<path d="M5753 5164 c-9 -4 -13 -32 -13 -90 0 -68 3 -84 15 -84 8 0 15 -7 15
-15 0 -21 30 -19 30 3 1 16 1 16 14 0 12 -16 19 -17 70 -6 34 6 61 7 66 2 5
-5 10 -73 11 -152 1 -78 5 -144 9 -147 3 -2 6 82 6 188 -1 186 0 192 19 192
15 0 21 8 23 29 2 16 -1 33 -6 38 -5 5 -53 16 -108 24 -54 8 -107 16 -118 19
-12 2 -27 1 -33 -1z"/>
<path d="M2545 4946 c-74 -18 -132 -47 -203 -100 -63 -48 -132 -124 -132 -145
0 -6 -4 -11 -10 -11 -5 0 -7 -7 -3 -15 3 -9 2 -15 -3 -14 -21 4 -26 -2 -14
-16 10 -13 10 -19 -4 -34 -10 -11 -13 -21 -9 -24 5 -3 10 -45 11 -93 1 -50 7
-93 14 -101 10 -12 8 -18 -11 -32 -21 -16 -21 -18 -6 -31 14 -12 16 -25 11
-74 -3 -32 -11 -65 -17 -72 -8 -10 -7 -17 4 -28 9 -9 15 -34 15 -64 0 -27 3
-59 7 -70 4 -14 2 -22 -6 -22 -8 0 -10 -13 -6 -43 3 -23 2 -49 -3 -57 -5 -8
-3 -24 5 -41 8 -14 12 -29 9 -32 -3 -3 -1 -22 5 -42 9 -33 8 -36 -7 -30 -9 4
-35 9 -57 12 -33 4 -47 0 -81 -25 -63 -46 -89 -108 -89 -212 0 -97 21 -148 79
-188 54 -37 145 -24 190 27 19 21 19 22 -2 66 -12 25 -26 45 -30 45 -5 0 -19
-11 -32 -25 -26 -27 -57 -32 -83 -12 -16 11 -11 19 50 83 37 38 77 73 88 78
11 4 16 4 13 0 -4 -3 6 -17 23 -31 16 -14 29 -35 29 -47 0 -60 49 -143 104
-177 40 -24 111 -25 156 -1 52 29 56 42 26 90 -32 51 -32 52 -1 52 14 0 41 6
60 14 37 16 45 13 45 -18 0 -11 10 -40 21 -64 24 -49 64 -72 122 -72 33 0 34
0 45 64 16 85 16 83 -18 83 -37 0 -48 9 -56 49 -5 26 -1 33 39 62 110 79 230
274 279 452 20 73 23 109 23 250 0 145 -3 174 -23 240 -31 98 -58 154 -103
215 -45 62 -69 83 -139 127 -104 65 -210 82 -325 54z"/>
<path d="M4456 4761 c-2 -3 0 -31 4 -63 5 -31 11 -265 15 -520 4 -254 11 -492
16 -528 5 -42 6 9 4 145 -19 900 -19 953 1 957 15 3 13 5 -9 10 -15 3 -29 3
-31 -1z"/>
<path d="M1032 3725 c-48 -40 -76 -117 -76 -210 -1 -92 14 -143 56 -191 33
-37 84 -52 117 -35 17 10 21 21 21 61 0 50 -7 59 -27 39 -17 -17 -54 -6 -76
23 -39 53 -33 182 10 227 15 15 49 18 75 7 18 -8 19 0 2 82 -6 32 -62 30 -102
-3z"/>
<path d="M1780 3700 c-24 -26 -28 -28 -33 -11 -3 14 -11 17 -36 13 l-31 -4 0
-133 c0 -72 3 -160 6 -194 l7 -61 33 0 34 0 0 136 c0 141 8 174 40 174 31 0
40 -32 40 -139 0 -66 4 -101 12 -103 6 -2 27 1 46 6 l34 11 -6 123 c-8 135
-14 160 -47 191 -32 29 -66 26 -99 -9z"/>
<path d="M1501 3663 c-19 -26 -20 -26 -21 -7 0 17 -5 20 -31 16 l-31 -5 5
-171 c3 -94 7 -177 8 -183 1 -7 15 -13 31 -13 l28 0 0 128 c0 136 9 167 46
161 17 -4 20 -17 27 -134 5 -72 10 -135 12 -141 2 -6 17 -9 34 -6 l31 4 0 138
c0 138 -14 214 -43 232 -28 18 -75 8 -96 -19z"/>
<path d="M1264 3654 c-54 -26 -79 -77 -82 -168 -3 -70 0 -87 20 -125 17 -32
30 -45 48 -46 13 -1 26 -7 28 -13 7 -21 48 -13 75 16 39 40 57 93 57 164 -1
126 -71 208 -146 172z m41 -90 c21 -8 45 -56 45 -89 0 -32 -26 -85 -43 -86
-46 -5 -66 20 -67 82 0 32 6 54 21 73 23 29 21 28 44 20z"/>
<path d="M4932 3297 c-1 -27 -6 -46 -11 -42 -6 3 -8 -44 -6 -122 2 -71 4 -210
5 -311 1 -153 4 -184 16 -189 26 -10 37 12 17 32 -13 13 -14 20 -5 23 6 2 12
17 12 33 0 28 2 30 43 29 23 -1 53 0 67 2 24 3 25 0 28 -54 2 -41 7 -58 17
-58 7 0 15 4 17 10 4 13 -11 469 -18 538 -4 33 -9 50 -16 46 -7 -5 -9 -74 -4
-225 l8 -219 -24 -9 c-14 -5 -28 -5 -36 2 -9 7 -16 7 -24 -1 -7 -7 -22 -12
-34 -12 -26 0 -27 13 -42 370 -5 113 -9 183 -10 157z"/>
<path d="M2410 3241 c-19 -10 -34 -21 -32 -25 1 -3 2 -11 2 -16 0 -6 15 -4 36
5 44 18 94 19 117 3 11 -8 20 -33 23 -63 l6 -50 -75 0 c-67 0 -78 -3 -96 -24
-34 -39 -46 -94 -32 -141 15 -49 54 -90 87 -90 34 0 81 26 96 53 12 21 13 21
18 -13 5 -33 7 -35 45 -35 29 0 40 4 43 17 2 12 -5 17 -25 20 l-28 3 -6 135
c-4 74 -7 145 -8 158 0 13 -14 37 -30 53 -35 35 -88 39 -141 10z m148 -220 c7
-65 -50 -141 -106 -141 -65 0 -97 95 -51 154 20 25 26 27 88 24 l66 -3 3 -34z"/>
<path d="M2070 2297 c-212 -204 -437 -376 -632 -481 -113 -61 -308 -118 -454
-132 l-72 -6 5 27 c7 32 8 32 98 44 54 7 38 7 -70 3 -77 -2 -147 -9 -155 -14
-10 -6 -3 -8 23 -4 47 6 67 -1 67 -24 0 -10 6 -21 13 -23 6 -3 -1 -6 -18 -6
-23 -1 -26 2 -15 9 12 8 11 10 -7 10 -12 0 -23 -4 -25 -10 -5 -14 -119 -14
-235 0 -113 14 -116 13 -147 -44 l-19 -35 31 -39 c40 -50 98 -90 158 -108 26
-8 49 -12 51 -10 2 2 -25 17 -59 34 -56 26 -139 95 -127 106 2 2 45 -3 94 -11
91 -14 314 -18 435 -9 44 3 55 2 35 -3 -26 -8 -23 -9 25 -11 l55 -2 -30 -14
c-16 -7 -41 -11 -55 -8 -19 3 -21 2 -10 -5 8 -6 33 -8 55 -4 38 6 39 5 22 -11
-20 -21 -22 -27 -5 -23 7 1 14 -9 16 -22 4 -25 32 -61 32 -42 0 26 27 8 39
-26 18 -51 30 -65 52 -58 14 5 19 1 19 -14 0 -12 5 -21 10 -21 6 0 10 -9 10
-20 0 -13 7 -20 18 -20 10 0 28 -11 40 -25 13 -14 27 -23 32 -20 6 3 10 1 10
-4 0 -6 7 -11 16 -11 8 0 12 -5 9 -10 -4 -6 -14 -8 -23 -6 -15 5 -17 -2 -14
-54 4 -72 22 -81 22 -11 0 47 1 50 31 56 19 5 59 -1 107 -14 43 -11 147 -34
232 -51 85 -16 200 -39 254 -50 55 -11 101 -20 103 -20 1 0 3 9 3 20 0 25 -36
49 -124 80 -59 21 -70 29 -68 45 2 16 1 17 -7 5 -9 -12 -16 -12 -61 2 -44 14
-56 15 -88 3 -20 -7 -31 -14 -23 -14 7 -1 11 -7 7 -16 -4 -10 1 -15 14 -15 11
0 20 -5 20 -11 0 -8 -16 -10 -52 -6 -91 11 -259 50 -255 60 5 15 229 97 264
97 18 0 33 5 33 11 0 7 9 9 23 6 20 -6 20 -4 -5 14 -24 18 -25 22 -16 53 9 27
8 38 -3 50 -33 36 -39 46 -39 64 0 14 -9 21 -30 26 l-30 6 0 90 c0 89 0 90
-25 90 -21 0 -25 5 -25 30 0 17 5 30 12 30 9 0 8 3 -1 13 -11 10 -14 10 -18 0
-3 -7 -12 -13 -21 -13 -19 1 -27 -6 76 68 34 24 63 43 67 43 3 -1 16 9 29 21
12 13 58 51 102 85 87 68 282 255 309 296 25 38 35 33 35 -15 -1 -80 -20 -179
-45 -231 -15 -29 -19 -43 -9 -32 43 53 68 129 72 224 4 72 1 95 -9 102 -10 6
-11 9 -1 9 23 0 12 20 -15 26 -16 4 -33 10 -38 15 -6 4 -50 -31 -105 -84z"/>
<path d="M1694 568 c-22 -10 -44 -47 -44 -73 0 -8 -7 -15 -15 -15 -11 0 -15
-11 -15 -40 0 -29 4 -40 15 -40 8 0 15 -8 15 -19 0 -24 26 -48 32 -29 6 16 74
-24 70 -41 -1 -7 2 -10 7 -6 6 3 8 11 5 19 -3 7 10 19 34 30 46 21 66 61 47
97 -7 12 -11 28 -9 34 3 6 -13 30 -34 53 -40 43 -66 51 -108 30z"/>
</g>
</svg>
