<svg id="3f4dd10d-a650-47ef-becb-ec93792d5f83" data-name="Calque 1" xmlns="http://www.w3.org/2000/svg" xmlns:xlink="http://www.w3.org/1999/xlink" viewBox="0 0 351 351"><defs><style>.fee83d95-3489-4cd8-8885-44c72072448d,.ffaf808a-f70f-4537-9faf-8cdd44616bbb{fill:none;}.a54b7c82-1454-4dcc-a7e3-001af96e2aad{clip-path:url(#8eb0e1a1-c2cb-4614-8813-dbae3b6b1289);}.\32 b803661-1e24-414e-915f-545290a6c557{fill:#e0e0e0;}.ffaf808a-f70f-4537-9faf-8cdd44616bbb{stroke:#e0e0e0;stroke-linecap:square;stroke-miterlimit:10;stroke-width:11px;}</style><clipPath id="8eb0e1a1-c2cb-4614-8813-dbae3b6b1289"><polygon class="fee83d95-3489-4cd8-8885-44c72072448d" points="232.17 118.83 232.17 5.5 118.83 5.5 5.5 5.5 5.5 118.83 5.5 232.17 5.5 345.5 118.83 345.5 232.17 345.5 345.5 345.5 345.5 232.17 345.5 118.83 232.17 118.83"/></clipPath></defs><title>brique-client-2</title><g class="a54b7c82-1454-4dcc-a7e3-001af96e2aad"><circle class="2b803661-1e24-414e-915f-545290a6c557" cx="6.17" cy="8.83" r="14.67"/><circle class="2b803661-1e24-414e-915f-545290a6c557" cx="68.83" cy="8.83" r="14.67"/><circle class="2b803661-1e24-414e-915f-545290a6c557" cx="131.5" cy="8.83" r="14.67"/><circle class="2b803661-1e24-414e-915f-545290a6c557" cx="194.17" cy="8.83" r="14.67"/><circle class="2b803661-1e24-414e-915f-545290a6c557" cx="256.83" cy="8.83" r="14.67"/><circle class="2b803661-1e24-414e-915f-545290a6c557" cx="319.5" cy="8.83" r="14.67"/><circle class="2b803661-1e24-414e-915f-545290a6c557" cx="35.5" cy="50.17" r="14.67"/><circle class="2b803661-1e24-414e-915f-545290a6c557" cx="98.17" cy="50.17" r="14.67"/><circle class="2b803661-1e24-414e-915f-545290a6c557" cx="160.83" cy="50.17" r="14.67"/><circle class="2b803661-1e24-414e-915f-545290a6c557" cx="223.5" cy="50.17" r="14.67"/><circle class="2b803661-1e24-414e-915f-545290a6c557" cx="286.17" cy="50.17" r="14.67"/><circle class="2b803661-1e24-414e-915f-545290a6c557" cx="348.83" cy="50.17" r="14.67"/><circle class="2b803661-1e24-414e-915f-545290a6c557" cx="6.17" cy="88.83" r="14.67"/><circle class="2b803661-1e24-414e-915f-545290a6c557" cx="68.83" cy="88.83" r="14.67"/><circle class="2b803661-1e24-414e-915f-545290a6c557" cx="131.5" cy="88.83" r="14.67"/><circle class="2b803661-1e24-414e-915f-545290a6c557" cx="194.17" cy="88.83" r="14.67"/><circle class="2b803661-1e24-414e-915f-545290a6c557" cx="256.83" cy="88.83" r="14.67"/><circle class="2b803661-1e24-414e-915f-545290a6c557" cx="319.5" cy="88.83" r="14.67"/><circle class="2b803661-1e24-414e-915f-545290a6c557" cx="35.5" cy="130.17" r="14.67"/><circle class="2b803661-1e24-414e-915f-545290a6c557" cx="98.17" cy="130.17" r="14.67"/><circle class="2b803661-1e24-414e-915f-545290a6c557" cx="160.83" cy="130.17" r="14.67"/><circle class="2b803661-1e24-414e-915f-545290a6c557" cx="223.5" cy="130.17" r="14.67"/><circle class="2b803661-1e24-414e-915f-545290a6c557" cx="286.17" cy="130.17" r="14.67"/><circle class="2b803661-1e24-414e-915f-545290a6c557" cx="348.83" cy="130.17" r="14.67"/><circle class="2b803661-1e24-414e-915f-545290a6c557" cx="6.17" cy="168.83" r="14.67"/><circle class="2b803661-1e24-414e-915f-545290a6c557" cx="68.83" cy="168.83" r="14.67"/><circle class="2b803661-1e24-414e-915f-545290a6c557" cx="131.5" cy="168.83" r="14.67"/><circle class="2b803661-1e24-414e-915f-545290a6c557" cx="194.17" cy="168.83" r="14.67"/><circle class="2b803661-1e24-414e-915f-545290a6c557" cx="256.83" cy="168.83" r="14.67"/><circle class="2b803661-1e24-414e-915f-545290a6c557" cx="319.5" cy="168.83" r="14.67"/><circle class="2b803661-1e24-414e-915f-545290a6c557" cx="35.5" cy="210.17" r="14.67"/><circle class="2b803661-1e24-414e-915f-545290a6c557" cx="98.17" cy="210.17" r="14.67"/><circle class="2b803661-1e24-414e-915f-545290a6c557" cx="160.83" cy="210.17" r="14.67"/><circle class="2b803661-1e24-414e-915f-545290a6c557" cx="223.5" cy="210.17" r="14.67"/><circle class="2b803661-1e24-414e-915f-545290a6c557" cx="286.17" cy="210.17" r="14.67"/><circle class="2b803661-1e24-414e-915f-545290a6c557" cx="348.83" cy="210.17" r="14.67"/><circle class="2b803661-1e24-414e-915f-545290a6c557" cx="6.17" cy="248.83" r="14.67"/><circle class="2b803661-1e24-414e-915f-545290a6c557" cx="68.83" cy="248.83" r="14.67"/><circle class="2b803661-1e24-414e-915f-545290a6c557" cx="131.5" cy="248.83" r="14.67"/><circle class="2b803661-1e24-414e-915f-545290a6c557" cx="194.17" cy="248.83" r="14.67"/><circle class="2b803661-1e24-414e-915f-545290a6c557" cx="256.83" cy="248.83" r="14.67"/><circle class="2b803661-1e24-414e-915f-545290a6c557" cx="319.5" cy="248.83" r="14.67"/><circle class="2b803661-1e24-414e-915f-545290a6c557" cx="35.5" cy="290.17" r="14.67"/><circle class="2b803661-1e24-414e-915f-545290a6c557" cx="98.17" cy="290.17" r="14.67"/><circle class="2b803661-1e24-414e-915f-545290a6c557" cx="160.83" cy="290.17" r="14.67"/><circle class="2b803661-1e24-414e-915f-545290a6c557" cx="223.5" cy="290.17" r="14.67"/><circle class="2b803661-1e24-414e-915f-545290a6c557" cx="286.17" cy="290.17" r="14.67"/><circle class="2b803661-1e24-414e-915f-545290a6c557" cx="348.83" cy="290.17" r="14.67"/><circle class="2b803661-1e24-414e-915f-545290a6c557" cx="6.17" cy="328.83" r="14.67"/><circle class="2b803661-1e24-414e-915f-545290a6c557" cx="68.83" cy="328.83" r="14.67"/><circle class="2b803661-1e24-414e-915f-545290a6c557" cx="131.5" cy="328.83" r="14.67"/><circle class="2b803661-1e24-414e-915f-545290a6c557" cx="194.17" cy="328.83" r="14.67"/><circle class="2b803661-1e24-414e-915f-545290a6c557" cx="256.83" cy="328.83" r="14.67"/><circle class="2b803661-1e24-414e-915f-545290a6c557" cx="319.5" cy="328.83" r="14.67"/></g><polygon class="ffaf808a-f70f-4537-9faf-8cdd44616bbb" points="232.17 118.83 232.17 5.5 118.83 5.5 118.83 5.5 5.5 5.5 5.5 118.83 5.5 232.17 5.5 345.5 118.83 345.5 118.83 345.5 232.17 345.5 345.5 345.5 345.5 232.17 345.5 118.83 232.17 118.83"/></svg>